<?xml version="1.0" encoding="UTF-8" standalone="no"?>
<!DOCTYPE svg PUBLIC "-//W3C//DTD SVG 1.1//EN" "http://www.w3.org/Graphics/SVG/1.1/DTD/svg11.dtd">
<svg width="100%" height="100%" viewBox="0 0 32 32" version="1.1" xmlns="http://www.w3.org/2000/svg" xmlns:xlink="http://www.w3.org/1999/xlink" xml:space="preserve" xmlns:serif="http://www.serif.com/" style="fill-rule:evenodd;clip-rule:evenodd;stroke-linejoin:round;stroke-miterlimit:2;">
    <rect x="-0" y="-0" width="32" height="32"/>
    <g>
        <rect x="-0" y="-0" width="4" height="4" style="fill:#323232;"/>
        <rect x="4" y="-0" width="4" height="4" style="fill:#323232;"/>
        <rect x="8" y="-0" width="4" height="4" style="fill:#323232;"/>
        <rect x="12" y="-0" width="4" height="4" style="fill:#323232;"/>
        <rect x="16" y="-0" width="4" height="4" style="fill:#323232;"/>
        <rect x="20" y="0" width="4" height="4" style="fill:#323232;"/>
        <rect x="24" y="-0" width="4" height="4" style="fill:#fff;"/>
        <rect x="-0" y="4" width="4" height="4" style="fill:#323232;"/>
        <rect x="4" y="4" width="4" height="4" style="fill:#9b9b9b;"/>
        <rect x="8" y="4" width="4" height="4" style="fill:#9b9b9b;"/>
        <rect x="12" y="4" width="4" height="4" style="fill:#9b9b9b;"/>
        <rect x="16" y="4" width="4" height="4" style="fill:#9b9b9b;"/>
        <rect x="20" y="4" width="4" height="4" style="fill:#fff;"/>
        <rect x="-0" y="8" width="4" height="4" style="fill:#323232;"/>
        <rect x="4" y="8" width="4" height="4" style="fill:#9b9b9b;"/>
        <rect x="8" y="8" width="4" height="4" style="fill:#737373;"/>
        <rect x="12" y="8" width="4" height="4" style="fill:#737373;"/>
        <rect x="20" y="8" width="4" height="4" style="fill:#737373;"/>
        <rect x="16" y="8" width="4" height="4" style="fill:#fff;"/>
        <rect x="-0" y="12" width="4" height="4" style="fill:#323232;"/>
        <rect x="4" y="12" width="4" height="4" style="fill:#9b9b9b;"/>
        <rect x="8" y="12" width="4" height="4" style="fill:#1e1e1e;"/>
        <rect x="12" y="12" width="4" height="4" style="fill:#1e1e1e;"/>
        <rect x="16" y="12" width="4" height="4" style="fill:#fff;"/>
        <rect x="-0" y="16" width="4" height="4" style="fill:#323232;"/>
        <rect x="4" y="16" width="4" height="4" style="fill:#9b9b9b;"/>
        <rect x="8" y="16" width="4" height="4" style="fill:#737373;"/>
        <rect x="12" y="16" width="4" height="4" style="fill:#fff;"/>
        <rect x="-0" y="20" width="4" height="4" style="fill:#323232;"/>
        <rect x="4" y="20" width="4" height="4" style="fill:#9b9b9b;"/>
        <rect x="8" y="20" width="4" height="4" style="fill:#fff;"/>
        <rect x="-0" y="24" width="4" height="4" style="fill:#323232;"/>
        <rect x="4" y="24" width="4" height="4" style="fill:#fff;"/>
        <rect x="-0" y="28" width="4" height="4" style="fill:#fff;"/>
    </g>
    <rect x="28" y="-0" width="4" height="4" style="fill:#e60098;"/>
    <rect x="24" y="4" width="4" height="4" style="fill:#002fe6;"/>
    <rect x="28" y="4" width="4" height="4" style="fill:#0097e6;"/>
    <rect x="24" y="8" width="4" height="4" style="fill:#e60098;"/>
    <rect x="28" y="8" width="4" height="4" style="fill:#e64f00;"/>
    <rect x="20" y="12" width="4" height="4" style="fill:#002fe6;"/>
    <rect x="24" y="12" width="4" height="4" style="fill:#e60a00;"/>
    <rect x="28" y="12" width="4" height="4" style="fill:#e6b700;"/>
    <rect x="16" y="16" width="4" height="4" style="fill:#0097e6;"/>
    <rect x="20" y="16" width="4" height="4" style="fill:#e60098;"/>
    <rect x="24" y="16" width="4" height="4" style="fill:#e64f00;"/>
    <rect x="28" y="16" width="4" height="4" style="fill:#00e64d;"/>
    <rect x="12" y="20" width="4" height="4" style="fill:#00dce6;"/>
    <rect x="16" y="20" width="4" height="4" style="fill:#002fe6;"/>
    <rect x="20" y="20" width="4" height="4" style="fill:#e60a00;"/>
    <rect x="24" y="20" width="4" height="4" style="fill:#e6b700;"/>
    <rect x="28" y="20" width="4" height="4" style="fill:#00dce6;"/>
    <rect x="8" y="24" width="4" height="4" style="fill:#00e64d;"/>
    <rect x="12" y="24" width="4" height="4" style="fill:#0097e6;"/>
    <rect x="16" y="24" width="4" height="4" style="fill:#e60098;"/>
    <rect x="20" y="24" width="4" height="4" style="fill:#e64f00;"/>
    <rect x="24" y="24" width="4" height="4" style="fill:#00e64d;"/>
    <rect x="28" y="24" width="4" height="4" style="fill:#0097e6;"/>
    <rect x="4" y="28" width="4" height="4" style="fill:#e6b700;"/>
    <rect x="8" y="28" width="4" height="4" style="fill:#00dce6;"/>
    <rect x="12" y="28" width="4" height="4" style="fill:#002fe6;"/>
    <rect x="16" y="28" width="4" height="4" style="fill:#e60a00;"/>
    <rect x="20" y="28" width="4" height="4" style="fill:#e6b700;"/>
    <rect x="24" y="28" width="4" height="4" style="fill:#00dce6;"/>
    <rect x="28" y="28" width="4" height="4" style="fill:#002fe6;"/>
</svg>
